<svg width="38" height="38" viewBox="0 0 38 38" fill="none" xmlns="http://www.w3.org/2000/svg">
<path d="M35.3167 0.666626H2.68341C2.14856 0.666626 1.63561 0.879096 1.25742 1.25729C0.879218 1.63549 0.666748 2.14844 0.666748 2.68329V35.3166C0.666748 35.5815 0.718911 35.8437 0.820258 36.0884C0.921605 36.333 1.07015 36.5554 1.25742 36.7426C1.44468 36.9299 1.667 37.0784 1.91167 37.1798C2.15634 37.2811 2.41858 37.3333 2.68341 37.3333H20.2467V23.125H15.4801V17.625H20.2467V13.5C20.148 12.5315 20.2623 11.5532 20.5817 10.6336C20.9011 9.71403 21.4178 8.87546 22.0956 8.17671C22.7734 7.47797 23.5958 6.93597 24.5053 6.58873C25.4147 6.24149 26.3891 6.09742 27.3601 6.16663C28.787 6.15785 30.2133 6.2313 31.6317 6.38663V11.3366H28.7167C26.4067 11.3366 25.9667 12.4366 25.9667 14.0316V17.57H31.4667L30.7517 23.07H25.9667V37.3333H35.3167C35.5816 37.3333 35.8438 37.2811 36.0885 37.1798C36.3332 37.0784 36.5555 36.9299 36.7427 36.7426C36.93 36.5554 37.0786 36.333 37.1799 36.0884C37.2813 35.8437 37.3334 35.5815 37.3334 35.3166V2.68329C37.3334 2.41846 37.2813 2.15622 37.1799 1.91155C37.0786 1.66687 36.93 1.44456 36.7427 1.25729C36.5555 1.07003 36.3332 0.921483 36.0885 0.820136C35.8438 0.718789 35.5816 0.666626 35.3167 0.666626Z" fill="white" fill-opacity="0.62"/>
</svg>
