<svg width="38" height="38" viewBox="0 0 38 38" fill="none" xmlns="http://www.w3.org/2000/svg">
<path d="M34.5283 0.66676H3.47161C3.1225 0.661912 2.77586 0.725881 2.45148 0.855014C2.1271 0.984147 1.83133 1.17591 1.58107 1.41937C1.33081 1.66282 1.13096 1.95318 0.99293 2.27388C0.854899 2.59457 0.781393 2.93932 0.776611 3.28843V34.7118C0.781393 35.0609 0.854899 35.4056 0.99293 35.7263C1.13096 36.047 1.33081 36.3374 1.58107 36.5808C1.83133 36.8243 2.1271 37.016 2.45148 37.1452C2.77586 37.2743 3.1225 37.3383 3.47161 37.3334H34.5283C34.8774 37.3383 35.224 37.2743 35.5484 37.1452C35.8728 37.016 36.1685 36.8243 36.4188 36.5808C36.6691 36.3374 36.8689 36.047 37.007 35.7263C37.145 35.4056 37.2185 35.0609 37.2233 34.7118V3.28843C37.2185 2.93932 37.145 2.59457 37.007 2.27388C36.8689 1.95318 36.6691 1.66282 36.4188 1.41937C36.1685 1.17591 35.8728 0.984147 35.5484 0.855014C35.224 0.725881 34.8774 0.661912 34.5283 0.66676ZM11.8316 31.3568H6.33161V14.8568H11.8316V31.3568ZM9.08161 12.5468C8.32309 12.5468 7.59564 12.2454 7.05928 11.7091C6.52293 11.1727 6.22161 10.4453 6.22161 9.68676C6.22161 8.92824 6.52293 8.20079 7.05928 7.66443C7.59564 7.12808 8.32309 6.82676 9.08161 6.82676C9.48439 6.78108 9.89227 6.82099 10.2785 6.94388C10.6648 7.06677 11.0208 7.26986 11.3231 7.53986C11.6255 7.80985 11.8674 8.14067 12.033 8.51064C12.1987 8.88062 12.2843 9.2814 12.2843 9.68676C12.2843 10.0921 12.1987 10.4929 12.033 10.8629C11.8674 11.2328 11.6255 11.5637 11.3231 11.8337C11.0208 12.1037 10.6648 12.3068 10.2785 12.4296C9.89227 12.5525 9.48439 12.5924 9.08161 12.5468ZM31.6683 31.3568H26.1683V22.5018C26.1683 20.2834 25.3799 18.8351 23.3816 18.8351C22.7632 18.8396 22.161 19.0336 21.6561 19.3909C21.1513 19.7482 20.7682 20.2517 20.5583 20.8334C20.4148 21.2643 20.3526 21.7181 20.3749 22.1718V31.3384H14.8749C14.8749 31.3384 14.8749 16.3418 14.8749 14.8384H20.3749V17.1668C20.8746 16.2998 21.6013 15.5855 22.4767 15.101C23.3522 14.6164 24.3433 14.3798 25.3433 14.4168C29.0099 14.4168 31.6683 16.7818 31.6683 21.8601V31.3568Z" fill="white" fill-opacity="0.62"/>
</svg>
