<svg width="42" height="36" viewBox="0 0 42 36" fill="none" xmlns="http://www.w3.org/2000/svg">
<path d="M41.1506 3.24213C41.1508 2.9183 41.0652 2.6002 40.9025 2.32022C40.7398 2.04025 40.5058 1.8084 40.2243 1.64828C39.9428 1.48817 39.6239 1.40551 39.3001 1.40873C38.9763 1.41194 38.6591 1.50092 38.3809 1.6666C37.3078 2.3053 36.1525 2.79443 34.9471 3.12043C33.2255 1.64319 31.0299 0.834818 28.7614 0.84308C26.2728 0.845945 23.8827 1.81583 22.0958 3.54795C20.3089 5.28006 19.2651 7.63881 19.1848 10.1261C14.2787 9.34377 9.83224 6.78309 6.69324 2.93238C6.50411 2.70291 6.26257 2.52229 5.98899 2.40575C5.71541 2.28921 5.41782 2.24017 5.12131 2.26276C4.82497 2.28716 4.53903 2.38338 4.28823 2.54309C4.03742 2.70281 3.8293 2.92122 3.68185 3.17943C2.92565 4.49908 2.49134 5.97848 2.41419 7.49749C2.33704 9.0165 2.61923 10.5323 3.23783 11.9218L3.23426 11.9253C2.95623 12.0966 2.72678 12.3363 2.56785 12.6215C2.40893 12.9068 2.32584 13.2281 2.32654 13.5546C2.32317 13.824 2.33933 14.0932 2.37488 14.3602C2.56213 16.6671 3.58448 18.8264 5.25021 20.4332C5.13721 20.6484 5.06824 20.8841 5.04734 21.1263C5.02643 21.3685 5.05401 21.6125 5.12846 21.844C5.85467 24.1066 7.39904 26.0168 9.45936 27.2007C7.36613 28.0102 5.10596 28.2924 2.87797 28.0225C2.4656 27.9708 2.04789 28.0607 1.69336 28.2776C1.33882 28.4944 1.06852 28.8254 0.926779 29.216C0.785042 29.6067 0.780288 30.034 0.913297 30.4277C1.04631 30.8215 1.30918 31.1583 1.6588 31.383C5.49064 33.851 9.95221 35.1631 14.51 35.1625C19.6787 35.2207 24.7217 33.569 28.8545 30.4645C32.9873 27.36 35.9783 22.9767 37.3622 17.9964C38.0095 15.8269 38.34 13.5753 38.3434 11.3113C38.3434 11.1913 38.3434 11.0678 38.3415 10.9443C39.2988 9.91198 40.0403 8.69899 40.5226 7.37641C41.005 6.05384 41.2185 4.64828 41.1506 3.24213V3.24213ZM35.0884 9.13063C34.7856 9.48876 34.6324 9.94976 34.6605 10.4179C34.6784 10.7204 34.6766 11.0247 34.6766 11.3113C34.6729 13.2244 34.3925 15.127 33.8441 16.9599C32.7139 21.1975 30.1943 24.9331 26.6888 27.5687C23.1833 30.2042 18.8948 31.5871 14.51 31.4959C12.935 31.4963 11.3654 31.3113 9.83362 30.9444C11.7869 30.315 13.6132 29.3445 15.228 28.0781C15.5254 27.8439 15.7431 27.5234 15.8511 27.1606C15.9592 26.7978 15.9523 26.4105 15.8315 26.0518C15.7106 25.693 15.4818 25.3805 15.1762 25.157C14.8707 24.9335 14.5035 24.81 14.125 24.8035C12.6012 24.7798 11.1461 24.1655 10.0663 23.0901C10.3402 23.0382 10.6124 22.9737 10.8827 22.8967C11.2787 22.784 11.6253 22.5413 11.8666 22.2077C12.1079 21.874 12.2299 21.4689 12.2129 21.0575C12.196 20.6461 12.0411 20.2524 11.7731 19.9397C11.5052 19.6271 11.1398 19.4137 10.7359 19.3339C9.85138 19.1592 9.01906 18.7829 8.30364 18.2343C7.58821 17.6856 7.00895 16.9793 6.61089 16.1703C6.94223 16.2156 7.27568 16.2436 7.60991 16.2545C8.00698 16.2605 8.39567 16.14 8.71977 15.9106C9.04387 15.6811 9.28658 15.3545 9.41281 14.978C9.53377 14.598 9.52755 14.189 9.39508 13.8129C9.26261 13.4368 9.01113 13.1142 8.67876 12.894C7.87237 12.3567 7.21181 11.6279 6.75625 10.7727C6.30069 9.91753 6.06435 8.96271 6.06841 7.99376C6.06841 7.87203 6.07198 7.75027 6.07915 7.63032C10.1881 11.4625 15.5177 13.7215 21.129 14.0094C21.4122 14.0205 21.6943 13.9672 21.9539 13.8534C22.2135 13.7395 22.4438 13.5682 22.6275 13.3523C22.8094 13.1343 22.9381 12.8771 23.0036 12.6009C23.0692 12.3248 23.0697 12.0371 23.0052 11.7607C22.9004 11.3232 22.8469 10.875 22.8459 10.4251C22.8475 8.85672 23.4713 7.35308 24.5803 6.24409C25.6893 5.1351 27.1929 4.51135 28.7613 4.50969C29.5682 4.50753 30.3668 4.67267 31.1067 4.99469C31.8465 5.31672 32.5116 5.78862 33.0599 6.38063C33.2714 6.60811 33.5375 6.77772 33.833 6.87331C34.1285 6.9689 34.4436 6.9873 34.7482 6.92676C35.5013 6.7802 36.2436 6.58281 36.9701 6.33595C36.4746 7.34973 35.8414 8.29018 35.0884 9.13063V9.13063Z" fill="white" fill-opacity="0.62"/>
</svg>
